<mxfile host="app.diagrams.net" agent="Mozilla/5.0 (X11; Ubuntu; Linux x86_64; rv:129.0) Gecko/20100101 Firefox/129.0" version="24.7.8">
  <diagram name="Page-1" id="GeMu5de2ThATLZaNIEGw">
    <mxGraphModel dx="703" dy="389" grid="0" gridSize="10" guides="1" tooltips="1" connect="1" arrows="1" fold="1" page="1" pageScale="1" pageWidth="850" pageHeight="1100" math="0" shadow="0">
      <root>
        <mxCell id="0" />
        <mxCell id="1" parent="0" />
        <mxCell id="5WoS6YAXuvY2vNMg1iPD-1" value="Raspberry Pi" style="rounded=0;whiteSpace=wrap;html=1;" vertex="1" parent="1">
          <mxGeometry x="138" y="496" width="347" height="84" as="geometry" />
        </mxCell>
        <mxCell id="5WoS6YAXuvY2vNMg1iPD-2" value="Balboa board" style="rounded=0;whiteSpace=wrap;html=1;" vertex="1" parent="1">
          <mxGeometry x="354" y="651" width="120" height="60" as="geometry" />
        </mxCell>
        <mxCell id="5WoS6YAXuvY2vNMg1iPD-4" value="&lt;div&gt;Estimator/Controller&lt;/div&gt;&lt;div&gt;pipeline&lt;br&gt;&lt;/div&gt;" style="rounded=0;whiteSpace=wrap;html=1;" vertex="1" parent="1">
          <mxGeometry x="354" y="510" width="120" height="60" as="geometry" />
        </mxCell>
        <mxCell id="5WoS6YAXuvY2vNMg1iPD-5" value="OS" style="rounded=0;whiteSpace=wrap;html=1;" vertex="1" parent="1">
          <mxGeometry x="151" y="510" width="120" height="60" as="geometry" />
        </mxCell>
        <mxCell id="5WoS6YAXuvY2vNMg1iPD-9" value="" style="endArrow=classic;html=1;rounded=0;exitX=0.25;exitY=0;exitDx=0;exitDy=0;entryX=0.25;entryY=1;entryDx=0;entryDy=0;" edge="1" parent="1" source="5WoS6YAXuvY2vNMg1iPD-2" target="5WoS6YAXuvY2vNMg1iPD-4">
          <mxGeometry width="50" height="50" relative="1" as="geometry">
            <mxPoint x="334" y="654" as="sourcePoint" />
            <mxPoint x="384" y="604" as="targetPoint" />
          </mxGeometry>
        </mxCell>
        <mxCell id="5WoS6YAXuvY2vNMg1iPD-10" value="" style="endArrow=classic;html=1;rounded=0;exitX=0.75;exitY=1;exitDx=0;exitDy=0;entryX=0.75;entryY=0;entryDx=0;entryDy=0;" edge="1" parent="1" source="5WoS6YAXuvY2vNMg1iPD-4" target="5WoS6YAXuvY2vNMg1iPD-2">
          <mxGeometry width="50" height="50" relative="1" as="geometry">
            <mxPoint x="334" y="654" as="sourcePoint" />
            <mxPoint x="384" y="604" as="targetPoint" />
          </mxGeometry>
        </mxCell>
        <mxCell id="5WoS6YAXuvY2vNMg1iPD-11" value="&lt;div&gt;Raw sensor data&lt;/div&gt;" style="text;html=1;align=center;verticalAlign=middle;resizable=0;points=[];autosize=1;strokeColor=none;fillColor=none;" vertex="1" parent="1">
          <mxGeometry x="275" y="604" width="108" height="26" as="geometry" />
        </mxCell>
        <mxCell id="5WoS6YAXuvY2vNMg1iPD-12" value="Motors commands" style="text;html=1;align=center;verticalAlign=middle;resizable=0;points=[];autosize=1;strokeColor=none;fillColor=none;" vertex="1" parent="1">
          <mxGeometry x="444" y="604" width="117" height="26" as="geometry" />
        </mxCell>
      </root>
    </mxGraphModel>
  </diagram>
</mxfile>
